<svg fill="none" height="600" width="600" xmlns="http://www.w3.org/2000/svg"><linearGradient id="prefix__a" gradientUnits="userSpaceOnUse" x1="484.583" x2="3.468" y1="66.923" y2="383.646"><stop offset="0" stop-color="#064b8d"/><stop offset="1" stop-color="#5c2134"/></linearGradient><rect fill="url(#prefix__a)" height="600" rx="300" width="600"/><path d="M458.011 279.419a78.49 78.49 0 00-32.721-30.922 99.455 99.455 0 00-45.682-10.414 87.44 87.44 0 00-41.804 10.148c-12.217 6.482-22.629 15.78-30.384 27.204-7.649-9.777-17.21-18.012-28.047-24.175-15.404-8.661-32.88-13.071-50.568-12.858-15.989-.16-31.765 3.666-45.842 11.158a87.296 87.296 0 00-15.51 10.466v-77.412c.106-2.497-.266-4.942-1.169-7.279a17.746 17.746 0 00-4.037-6.164 17.086 17.086 0 00-6.215-3.984 18.534 18.534 0 00-7.383-1.169c-4.834-.053-9.508 1.7-13.014 4.994a17.585 17.585 0 00-4.25 6.163c-1.009 2.338-1.434 4.888-1.381 7.386v156.206c.213 17.268 4.887 34.164 13.599 49.041 8.446 14.399 20.61 26.3 35.217 34.482 15.192 8.501 32.349 12.858 49.772 12.699 17.689.265 35.165-4.198 50.569-12.805 14.767-8.395 26.984-20.562 35.377-35.226a99.426 99.426 0 0012.961-50.316v-19.765a35.309 35.309 0 016.374-20.774c4.674-6.535 10.996-11.795 18.379-15.09 8.552-3.878 17.901-5.791 27.303-5.632a62.294 62.294 0 0127.675 5.951c7.702 3.773 14.129 9.723 18.432 17.162a58.424 58.424 0 016.905 30.285v87.561c0 4.941 1.965 9.67 5.471 13.123 3.506 3.507 8.234 5.473 13.227 5.473s9.72-1.966 13.226-5.473 5.471-8.235 5.471-13.123v-87.88c.478-17.108-3.612-34.057-11.898-49.041zm-260.652 2.923a61.549 61.549 0 0122.947-7.97c8.074-1.116 16.36-.638 24.222 1.435a61.629 61.629 0 0121.778 10.626c6.481 4.941 11.899 11.157 15.989 18.171 4.834 8.448 7.596 17.905 8.021 27.628v6.589a62.289 62.289 0 01-8.074 29.753 61.237 61.237 0 01-22.044 22.316 64.609 64.609 0 01-31.5 8.182 64.608 64.608 0 01-31.499-8.182 58.385 58.385 0 01-21.991-22.316 64.953 64.953 0 01-8.021-32.197c-.212-11.211 2.55-22.209 8.021-32.039a59.33 59.33 0 0122.044-22.049z" fill="#fff"/></svg>