<svg width="193" height="77" fill="none" xmlns="http://www.w3.org/2000/svg"><path d="M35.574 42.416c-.13-.346-.26-.691-.37-1.047-1.287-4.227-2.015-13.322-2.474-18.586C31.672 10.873 27.551 1.105 21.185.75V.67c-6.367.346-10.488 10.123-11.546 22.024-.469 5.274-1.187 14.36-2.474 18.586-.12.356-.24.711-.37 1.047-19.817 10.222 9.58 11.565 14.39 11.634v.079c4.81-.07 34.216-1.412 14.389-11.634v.01z" fill="#2E3048"/><path d="M30.285 58.12c1.737-3.12 2.994-7.51 2.994-9.97 0-.62-.06-1.26-.16-1.87-.35-2.14-1.517-3.59-2.814-3.58h-.03c-1.307 0-2.464 1.44-2.814 3.58-.1.62-.16 1.25-.16 1.87 0 2.46 1.258 6.84 2.994 9.97h-.01z" fill="#C11C79"/><path d="M30.285 51.83c.938-1.69 1.617-4.07 1.617-5.4 0-.34-.03-.68-.08-1.01-.19-1.16-.818-1.94-1.527-1.94h-.02c-.708 0-1.337.78-1.526 1.94-.06.33-.08.68-.08 1.01 0 1.33.678 3.71 1.616 5.4z" fill="#FF438B"/><path d="M12.014 58.59c1.737-3.12 2.994-7.51 2.994-9.97 0-.62-.06-1.26-.16-1.87-.349-2.14-1.517-3.59-2.814-3.58h-.03c-1.307 0-2.464 1.44-2.814 3.58-.1.62-.16 1.25-.16 1.87 0 2.46 1.258 6.84 2.994 9.97h-.01z" fill="#C11C79"/><path d="M12.014 51.83c.938-1.69 1.617-4.07 1.617-5.4 0-.34-.03-.68-.09-1.01-.19-1.16-.818-1.94-1.527-1.94h-.02c-.708 0-1.337.78-1.526 1.94-.06.33-.09.68-.09 1.01 0 1.33.678 3.71 1.616 5.4h.02z" fill="#FF438B"/><path d="M21.145 67.14c2.774-4.59 4.78-11.02 4.78-14.63 0-.92-.09-1.85-.25-2.75-.569-3.14-2.425-5.27-4.51-5.26h-.05c-2.086-.01-3.942 2.11-4.51 5.26-.16.9-.25 1.83-.25 2.75 0 3.61 2.006 10.05 4.78 14.63h.01z" fill="#C11C79"/><path d="M21.145 58.01c1.257-2.01 2.165-4.84 2.165-6.43 0-.4-.04-.81-.11-1.21-.26-1.38-1.097-2.32-2.035-2.31h-.02c-.938 0-1.786.93-2.036 2.31-.07.4-.11.81-.11 1.21 0 1.59.908 4.41 2.166 6.43h-.02z" fill="#FF438B"/><path d="M21.205 2.03c-5.878 0-9.29 12.38-10.079 21.47-.34 3.95-.828 11.06-1.427 14.32-.349 1.94-1.546 5.12-1.636 5.37-5.359 3.32-6.606 4.85-6.297 5.23.14.16 2.186-.25 4.57-.75 1.856-.39 3.952-.77 5.31-1.45 5.298-2.64 4.54-8.19 5.447-8.22 1.038-.03.42 1.67 1.188 3.53 1.028 2.5 3.722 5.3 10.118 4.34-1.776-1.55-2.155-7.81-1.038-7.81.839 0 .14 3.27 3.613 6.61 3.183 3.07 9.719 3.98 9.769 3.74.22-1.21-4.41-3.66-6.446-5.19-1.407-3.33-2.435-17.57-2.675-19.77-1.117-10.27-4.33-21.43-10.407-21.43l-.01.01z" fill="#fff"/><path d="M21.205 2.03c6.077 0 9.3 11.16 10.408 21.43.24 2.19 1.267 16.44 2.674 19.77 2.035 1.53 6.656 3.97 6.446 5.19 0 .02-.07.04-.2.04-1.127 0-6.695-1.02-9.559-3.78-3.473-3.35-2.774-6.61-3.612-6.61-1.118 0-.739 6.26 1.038 7.81-.879.13-1.687.19-2.435.19-4.67 0-6.796-2.38-7.684-4.54-.758-1.85-.17-3.53-1.167-3.53h-.03c-.908.03-.15 5.58-5.449 8.22-1.357.68-3.442 1.05-5.308 1.45-2.016.43-3.802.79-4.38.79-.1 0-.17-.01-.19-.04-.31-.37.937-1.91 6.296-5.23.1-.26 1.287-3.43 1.637-5.37.588-3.26 1.077-10.36 1.427-14.32.808-9.1 4.21-21.47 10.088-21.47zm0-1.61C13.56.42 10.268 14.84 9.53 23.36c-.07.84-.15 1.81-.24 2.86-.319 3.92-.718 8.81-1.167 11.3-.24 1.32-.968 3.46-1.377 4.58C.449 46.06.25 47.29.14 47.96c-.09.54.05 1.07.39 1.48.338.41.817.62 1.426.62s1.766-.2 4.71-.83l.698-.15c1.777-.37 3.623-.75 4.99-1.44 2.574-1.28 3.941-3.17 4.73-4.88 1.038 2.07 3.462 4.9 8.88 4.9.839 0 1.737-.07 2.665-.21l2.754-.41c3.373 2.23 8.003 3.01 9.15 3.01 1.497 0 1.757-1.23 1.787-1.37.339-1.92-1.876-3.35-4.95-5.34-.638-.41-1.247-.8-1.736-1.15-1.008-3.1-1.886-13.04-2.225-16.89-.08-.94-.15-1.66-.19-2.03C32.471 16.41 29.806.42 21.205.42z" fill="#2E3048"/><path d="M17.453 21.81c1.13 0 2.045-1.598 2.045-3.57 0-1.972-.916-3.57-2.045-3.57-1.13 0-2.046 1.598-2.046 3.57 0 1.972.916 3.57 2.046 3.57zM25.017 21.81c1.13 0 2.045-1.598 2.045-3.57 0-1.972-.916-3.57-2.046-3.57s-2.045 1.598-2.045 3.57c0 1.972.916 3.57 2.046 3.57z" fill="#2E3048"/><path d="M18.29 37.66c-.348 1.59-.468 2.85.33 4.56.689 1.28 1.866 2.54 3.782 3.25-2.904-2.9-3.193-4.52-4.101-7.81h-.01zM12.114 45.95c.48-1.63.998-4.85.928-6.58-.09.62-1.846 4.23-1.846 4.23s-1.906 2.17-4.46 3.97c1.756-.37 3.642-.74 4.9-1.36.169-.08.328-.17.478-.26zM27.89 36.99c0 1.22.14 3.58 1.268 5.42.429.72 1.008 1.49 1.806 2.26 2.365 2.28 6.586 3.37 8.611 3.68-7.234-3.59-9.52-6.61-11.685-11.36z" fill="#E2E0E7"/><path d="M21.364 25.45c.469 0 .848-.483.848-1.08 0-.596-.38-1.08-.848-1.08-.468 0-.848.484-.848 1.08 0 .596.38 1.08.848 1.08z" fill="#2E3048"/><path d="M27.239 6.637c-1.584-2.815-3.572-4.601-6.024-4.601-2.28 0-6.527 2.492-9.05 14.6 3.028-5.55 5.55-12.108 9.211-11.674 2.079 0 4.036.595 5.853 1.665l.01.01z" fill="#E2E0E7"/><path d="M21.185 76.36c10.256 0 18.57-1.383 18.57-3.09 0-1.706-8.314-3.09-18.57-3.09s-18.57 1.383-18.57 3.09c0 1.707 8.314 3.09 18.57 3.09z" fill="#C5C2CB"/><path d="M62.93 14.725v10.16c0 .52.03 1 .08 1.42h-1.78c-.05-.3-.08-.63-.08-1.01-.19.35-.49.64-.9.86-.41.22-.87.34-1.39.34-1.11 0-2.01-.39-2.7-1.17-.69-.78-1.04-1.76-1.04-2.94s.35-2.11 1.05-2.9c.7-.79 1.59-1.18 2.66-1.18.62 0 1.12.11 1.5.34.38.23.64.49.79.78v-4.7h1.81zm-5.95 7.66c0 .75.19 1.35.58 1.8.38.45.89.68 1.52.68s1.1-.23 1.49-.69c.39-.46.58-1.06.58-1.81s-.19-1.32-.56-1.76c-.37-.44-.87-.66-1.49-.66s-1.12.22-1.52.66c-.39.44-.59 1.03-.59 1.77l-.01.01zM73.28 26.305l-1.07-2.85h-4.8l-1.06 2.85h-2.03l4.42-11.34h2.22l4.42 11.34h-2.1zm-3.47-9.26l-1.73 4.64h3.46l-1.73-4.64zM78.53 29.345h-1.84v-10.83h1.79v1.06c.2-.35.52-.64.96-.88.44-.23.94-.35 1.52-.35 1.12 0 2 .38 2.64 1.14.64.76.96 1.74.96 2.92s-.34 2.16-1.01 2.94c-.67.77-1.56 1.16-2.66 1.16-.53 0-1.01-.1-1.42-.3-.42-.2-.73-.46-.94-.77v3.92-.01zm4.18-6.94c0-.72-.19-1.31-.58-1.75-.38-.44-.89-.66-1.52-.66s-1.12.22-1.51.66c-.39.44-.58 1.03-.58 1.75s.19 1.33.58 1.78c.39.45.89.67 1.51.67s1.12-.22 1.51-.67c.39-.45.58-1.04.58-1.78h.01zM88.19 29.345h-1.84v-10.83h1.79v1.06c.2-.35.52-.64.96-.88.44-.23.94-.35 1.52-.35 1.12 0 2 .38 2.64 1.14.64.76.96 1.74.96 2.92s-.34 2.16-1.01 2.94c-.67.77-1.56 1.16-2.66 1.16-.53 0-1.01-.1-1.42-.3-.42-.2-.73-.46-.94-.77v3.92-.01zm4.18-6.94c0-.72-.19-1.31-.58-1.75-.38-.44-.89-.66-1.52-.66s-1.12.22-1.51.66c-.39.44-.58 1.03-.58 1.75s.19 1.33.58 1.78c.39.45.89.67 1.51.67s1.12-.22 1.51-.67c.39-.45.58-1.04.58-1.78h.01z" fill="#2E3048"/><path fill-rule="evenodd" clip-rule="evenodd" d="M83.402 31.355c-3.034 0-5.629 1.031-7.794 3.094-2.166 2.062-3.249 4.77-3.249 8.13 0 3.36 1.083 6.04 3.249 8.103 2.165 2.063 4.76 3.094 7.794 3.094s5.663-1.031 7.829-3.094c2.166-2.062 3.248-4.76 3.248-8.104 0-3.343-1.082-6.067-3.248-8.13-2.166-2.062-4.77-3.093-7.829-3.093zm4.735 16.491c-1.332 1.247-2.913 1.865-4.735 1.865-1.822 0-3.369-.618-4.7-1.865-1.333-1.246-2.003-3.007-2.003-5.293s.67-4.048 2.002-5.294c1.332-1.246 2.905-1.865 4.701-1.865 1.796 0 3.395.619 4.735 1.865 1.332 1.246 2.003 3.008 2.003 5.294 0 2.286-.67 4.047-2.003 5.293zm-21.845-5.628c.91-.301 1.659-.877 2.243-1.71.584-.834.876-1.805.876-2.897 0-1.718-.584-3.11-1.744-4.185-1.16-1.074-2.767-1.607-4.813-1.607H55.12v21.51h8.31c2.003 0 3.61-.558 4.821-1.684 1.212-1.126 1.822-2.561 1.822-4.323 0-1.297-.36-2.397-1.074-3.326-.722-.92-1.624-1.512-2.716-1.778h.009zm-7.03-6.884h2.93c.989 0 1.754.24 2.295.713.533.473.808 1.126.808 1.96 0 .833-.275 1.486-.816 1.968-.55.49-1.298.73-2.243.73h-2.974v-5.371zm5.775 13.759c-.576.498-1.366.747-2.38.747h-3.395v-5.672h3.455c1.014 0 1.796.267 2.355.791.558.524.833 1.22.833 2.097 0 .876-.283 1.555-.868 2.045v-.008zm35.054-14.644c2.166-2.063 4.761-3.094 7.795-3.094 3.059 0 5.663 1.031 7.829 3.094 2.165 2.062 3.248 4.787 3.248 8.13 0 3.342-1.083 6.04-3.248 8.103-2.166 2.063-4.796 3.094-7.829 3.094-3.034 0-5.629-1.031-7.795-3.094-2.165-2.062-3.248-4.743-3.248-8.104 0-3.36 1.082-6.067 3.248-8.13zm7.795 15.262c1.822 0 3.403-.618 4.735-1.865 1.332-1.246 2.002-3.007 2.002-5.293s-.67-4.048-2.002-5.294c-1.341-1.246-2.939-1.865-4.735-1.865-1.796 0-3.369.619-4.701 1.865-1.332 1.246-2.002 3.008-2.002 5.294 0 2.286.67 4.047 2.002 5.293 1.332 1.247 2.879 1.865 4.701 1.865zm23.426-8.92l-3.007-.576c-1.556-.3-2.338-1.108-2.338-2.423 0-.748.318-1.392.937-1.925.618-.533 1.435-.808 2.423-.808 1.212 0 2.131.318 2.759.937.627.627 1.014 1.323 1.151 2.096l3.764-1.151a7.46 7.46 0 00-.696-1.908c-.326-.61-.782-1.194-1.366-1.779-.584-.584-1.367-1.04-2.338-1.383-.971-.344-2.071-.516-3.308-.516-2.063 0-3.824.645-5.294 1.942-1.469 1.298-2.2 2.896-2.2 4.796 0 1.598.507 2.93 1.513 4.004 1.014 1.074 2.389 1.788 4.125 2.157l3.007.61c.825.164 1.47.473 1.925.928.456.456.679.997.679 1.625 0 .79-.309 1.426-.928 1.907-.619.482-1.469.731-2.561.731-1.435 0-2.552-.387-3.351-1.152-.8-.764-1.246-1.727-1.35-2.878l-3.884 1.03c.077.809.309 1.59.679 2.355a8.443 8.443 0 001.564 2.158c.67.678 1.547 1.22 2.638 1.624 1.092.404 2.312.61 3.67.61 2.363 0 4.254-.662 5.655-1.985 1.4-1.324 2.105-2.88 2.105-4.658 0-1.556-.524-2.913-1.581-4.065-1.057-1.151-2.527-1.908-4.426-2.277l.034-.026zm14.318-5.01h-6.798v-3.97h17.806v3.97h-6.789v17.54h-4.219V35.78zm13.956 17.54h13.466v-3.945h-9.281V44.4h8.405v-3.73h-8.405v-4.915h9.281V31.81h-13.466v21.51zm31.685-11.026c-.816 1.074-1.934 1.822-3.352 2.226l4.615 8.8h-4.675l-4.219-8.285h-2.183v8.285h-4.22V31.81h8.405c2.063 0 3.721.627 4.976 1.882 1.255 1.254 1.882 2.835 1.882 4.735 0 1.495-.413 2.784-1.229 3.867zm-6.42-.868c1.058 0 1.883-.267 2.475-.817v-.008c.593-.55.894-1.246.894-2.157s-.301-1.633-.894-2.183c-.601-.541-1.426-.816-2.475-.816h-3.394v5.98h3.394z" fill="url(#prefix__paint0_linear_1057_2513)"/><defs><linearGradient id="prefix__paint0_linear_1057_2513" x1="48.779" y1="68.697" x2="256.761" y2="10.323" gradientUnits="userSpaceOnUse"><stop stop-color="#662681"/><stop offset=".817" stop-color="#B91C7B"/></linearGradient></defs></svg>