<svg width="193" height="77" fill="none" xmlns="http://www.w3.org/2000/svg"><path d="M36.48 42.583c-.13-.343-.26-.687-.37-1.041-1.29-4.204-2.02-13.252-2.48-18.488-1.06-11.847-5.19-21.562-11.57-21.916v-.079c-6.38.344-10.51 10.07-11.57 21.907-.47 5.245-1.19 14.283-2.48 18.488-.12.353-.24.707-.37 1.04-19.86 10.168 9.6 11.504 14.42 11.573v.079c4.82-.07 34.29-1.405 14.42-11.572v.01z" fill="#131521"/><path d="M31.18 58.225c1.74-3.12 3-7.51 3-9.97 0-.62-.06-1.26-.16-1.87-.35-2.14-1.52-3.59-2.82-3.58h-.03c-1.31 0-2.47 1.44-2.82 3.58-.1.62-.16 1.25-.16 1.87 0 2.46 1.26 6.84 3 9.97h-.01z" fill="#C11C79"/><path d="M31.18 51.935c.94-1.69 1.62-4.07 1.62-5.4 0-.34-.03-.68-.08-1.01-.19-1.16-.82-1.94-1.53-1.94h-.02c-.71 0-1.34.78-1.53 1.94-.06.33-.08.68-.08 1.01 0 1.33.68 3.71 1.62 5.4z" fill="#FF438B"/><path d="M12.87 58.696c1.74-3.12 3-7.51 3-9.97 0-.62-.06-1.26-.16-1.87-.35-2.14-1.52-3.59-2.82-3.58h-.03c-1.31 0-2.47 1.44-2.82 3.58-.1.62-.16 1.25-.16 1.87 0 2.46 1.26 6.84 3 9.97h-.01z" fill="#C11C79"/><path d="M12.87 51.936c.94-1.69 1.62-4.07 1.62-5.4 0-.34-.03-.68-.09-1.01-.19-1.16-.82-1.94-1.53-1.94h-.02c-.71 0-1.34.78-1.53 1.94-.06.33-.09.68-.09 1.01 0 1.33.68 3.71 1.62 5.4h.02z" fill="#FF438B"/><path d="M22.02 67.246c2.78-4.59 4.79-11.02 4.79-14.63 0-.92-.09-1.85-.25-2.75-.57-3.14-2.43-5.27-4.52-5.26h-.05c-2.09-.01-3.95 2.11-4.52 5.26-.16.9-.25 1.83-.25 2.75 0 3.61 2.01 10.05 4.79 14.63h.01z" fill="#C11C79"/><path d="M22.02 58.115c1.26-2.01 2.17-4.84 2.17-6.43 0-.4-.04-.81-.11-1.21-.26-1.38-1.1-2.32-2.04-2.31h-.02c-.94 0-1.79.93-2.04 2.31-.07.4-.11.81-.11 1.21 0 1.59.91 4.41 2.17 6.43h-.02z" fill="#FF438B"/><path d="M22.08 2.135c-5.89 0-9.31 12.38-10.1 21.47-.34 3.95-.83 11.06-1.43 14.32-.35 1.94-1.55 5.12-1.64 5.37-5.37 3.32-6.62 4.85-6.31 5.23.14.16 2.19-.25 4.58-.75 1.86-.39 3.96-.77 5.32-1.45 5.31-2.64 4.55-8.19 5.46-8.22 1.04-.03.42 1.67 1.19 3.53 1.03 2.5 3.73 5.3 10.14 4.34-1.78-1.55-2.16-7.81-1.04-7.81.84 0 .14 3.27 3.62 6.61 3.19 3.07 9.74 3.98 9.79 3.74.22-1.21-4.42-3.66-6.46-5.19-1.41-3.33-2.44-17.57-2.68-19.77-1.12-10.27-4.34-21.43-10.43-21.43l-.01.01z" fill="#E8E8E8"/><path d="M22.08 2.136c6.09 0 9.32 11.16 10.43 21.43.24 2.19 1.27 16.44 2.68 19.77 2.04 1.53 6.67 3.97 6.46 5.19 0 .02-.07.04-.2.04-1.13 0-6.71-1.02-9.58-3.78-3.48-3.35-2.78-6.61-3.62-6.61-1.12 0-.74 6.26 1.04 7.81-.88.13-1.69.19-2.44.19-4.68 0-6.81-2.38-7.7-4.54-.76-1.85-.17-3.53-1.17-3.53h-.03c-.91.03-.15 5.58-5.46 8.22-1.36.68-3.45 1.05-5.32 1.45-2.02.43-3.81.79-4.39.79-.1 0-.17-.01-.19-.04-.31-.37.94-1.91 6.31-5.23.1-.26 1.29-3.43 1.64-5.37.59-3.26 1.08-10.36 1.43-14.32.81-9.1 4.22-21.47 10.11-21.47zm0-1.61c-7.66 0-10.96 14.42-11.7 22.94-.07.84-.15 1.81-.24 2.86-.32 3.92-.72 8.81-1.17 11.3-.24 1.32-.97 3.46-1.38 4.58-6.31 3.96-6.51 5.19-6.62 5.86-.09.54.05 1.07.39 1.48.34.41.82.62 1.43.62s1.77-.2 4.72-.83l.7-.15c1.78-.37 3.63-.75 5-1.44 2.58-1.28 3.95-3.17 4.74-4.88 1.04 2.07 3.47 4.9 8.9 4.9.84 0 1.74-.07 2.67-.21l2.76-.41c3.38 2.23 8.02 3.01 9.17 3.01 1.5 0 1.76-1.23 1.79-1.37.34-1.92-1.88-3.35-4.96-5.34-.64-.41-1.25-.8-1.74-1.15-1.01-3.1-1.89-13.04-2.23-16.89-.08-.94-.15-1.66-.19-2.03-.75-6.86-3.42-22.85-12.04-22.85z" fill="#131521"/><path d="M18.32 21.916c1.132 0 2.05-1.599 2.05-3.57 0-1.972-.918-3.57-2.05-3.57-1.132 0-2.05 1.598-2.05 3.57 0 1.971.918 3.57 2.05 3.57zM25.9 21.916c1.132 0 2.05-1.599 2.05-3.57 0-1.972-.918-3.57-2.05-3.57-1.132 0-2.05 1.598-2.05 3.57 0 1.971.918 3.57 2.05 3.57z" fill="#131521"/><path opacity=".2" d="M19.16 37.766c-.35 1.59-.47 2.85.33 4.56.69 1.28 1.87 2.54 3.79 3.25-2.91-2.9-3.2-4.52-4.11-7.81h-.01zM12.97 46.056c.48-1.63 1-4.85.93-6.58-.09.62-1.85 4.23-1.85 4.23s-1.91 2.17-4.47 3.97c1.76-.37 3.65-.74 4.91-1.36.17-.08.33-.17.48-.26zM28.78 37.096c0 1.22.14 3.58 1.27 5.42.43.72 1.01 1.49 1.81 2.26 2.37 2.28 6.6 3.37 8.63 3.68-7.25-3.59-9.54-6.61-11.71-11.36z" fill="#2E3048"/><path d="M22.24 25.555c.47 0 .85-.483.85-1.08 0-.596-.38-1.08-.85-1.08s-.85.484-.85 1.08c0 .597.38 1.08.85 1.08z" fill="#131521"/><path d="M28.068 6.727c-1.584-2.815-3.572-4.602-6.024-4.602-2.28 0-6.526 2.493-9.049 14.601 3.027-5.55 5.55-12.108 9.21-11.674 2.08 0 4.037.595 5.853 1.665l.01.01z" fill="#C3C3C8"/><path opacity=".4" d="M22.06 76.466c10.278 0 18.61-1.384 18.61-3.09 0-1.707-8.332-3.09-18.61-3.09-10.278 0-18.61 1.383-18.61 3.09 0 1.706 8.332 3.09 18.61 3.09z" fill="#000"/><path d="M64.084 14.928v10.16c0 .52.03 1 .08 1.42h-1.78c-.05-.3-.08-.63-.08-1.01-.19.35-.49.64-.9.86-.41.22-.87.34-1.39.34-1.11 0-2.01-.39-2.7-1.17-.69-.78-1.04-1.76-1.04-2.94s.35-2.11 1.05-2.9c.7-.79 1.59-1.18 2.66-1.18.62 0 1.12.11 1.5.34.38.23.64.49.79.78v-4.7h1.81zm-5.95 7.66c0 .75.19 1.35.58 1.8.38.45.89.68 1.52.68s1.1-.23 1.49-.69c.39-.46.58-1.06.58-1.81s-.19-1.32-.56-1.76c-.37-.44-.87-.66-1.49-.66s-1.12.22-1.52.66c-.39.44-.59 1.03-.59 1.77l-.01.01zM74.434 26.508l-1.07-2.85h-4.8l-1.06 2.85h-2.03l4.42-11.34h2.22l4.42 11.34h-2.1zm-3.47-9.26l-1.73 4.64h3.46l-1.73-4.64zM79.684 29.548h-1.84v-10.83h1.79v1.06c.2-.35.52-.64.96-.88.44-.23.94-.35 1.52-.35 1.12 0 2 .38 2.64 1.14.64.76.96 1.74.96 2.92s-.34 2.16-1.01 2.94c-.67.77-1.56 1.16-2.66 1.16-.53 0-1.01-.1-1.42-.3-.42-.2-.73-.46-.94-.77v3.92-.01zm4.18-6.94c0-.72-.19-1.31-.58-1.75-.38-.44-.89-.66-1.52-.66s-1.12.22-1.51.66c-.39.44-.58 1.03-.58 1.75s.19 1.33.58 1.78c.39.45.89.67 1.51.67s1.12-.22 1.51-.67c.39-.45.58-1.04.58-1.78h.01zM89.344 29.548h-1.84v-10.83h1.79v1.06c.2-.35.52-.64.96-.88.44-.23.94-.35 1.52-.35 1.12 0 2 .38 2.64 1.14.64.76.96 1.74.96 2.92s-.34 2.16-1.01 2.94c-.67.77-1.56 1.16-2.66 1.16-.53 0-1.01-.1-1.42-.3-.42-.2-.73-.46-.94-.77v3.92-.01zm4.18-6.94c0-.72-.19-1.31-.58-1.75-.38-.44-.89-.66-1.52-.66s-1.12.22-1.51.66c-.39.44-.58 1.03-.58 1.75s.19 1.33.58 1.78c.39.45.89.67 1.51.67s1.12-.22 1.51-.67c.39-.45.58-1.04.58-1.78h.01z" fill="#BFBFBF"/><path d="M67.384 42.36c.906-.299 1.65-.871 2.23-1.7.582-.83.873-1.795.873-2.88 0-1.71-.581-3.095-1.735-4.163C67.598 32.55 66 32.02 63.966 32.02h-7.692v21.392h8.264c1.992 0 3.59-.556 4.795-1.675 1.205-1.12 1.812-2.547 1.812-4.3 0-1.29-.36-2.384-1.069-3.307-.717-.914-1.615-1.504-2.7-1.769h.008zm-7-6.846h2.924c.982 0 1.743.24 2.282.71.53.47.803 1.12.803 1.949 0 .828-.274 1.478-.812 1.957-.547.487-1.29.726-2.23.726h-2.958v-5.342h-.008zm5.752 13.683c-.572.496-1.358.744-2.367.744h-3.376v-5.64h3.436c1.009 0 1.786.264 2.342.786.555.52.829 1.213.829 2.085 0 .872-.282 1.547-.864 2.034v-.009z" fill="url(#prefix__paint0_linear_1106_5528)"/><path d="M84.4 31.558c-3.017 0-5.598 1.025-7.751 3.076-2.154 2.051-3.23 4.743-3.23 8.085 0 3.342 1.076 6.008 3.23 8.06 2.153 2.05 4.734 3.076 7.751 3.076 3.017 0 5.632-1.025 7.786-3.076 2.154-2.052 3.23-4.735 3.23-8.06 0-3.324-1.076-6.034-3.23-8.085-2.154-2.05-4.743-3.076-7.786-3.076zm4.71 16.4c-1.325 1.24-2.898 1.855-4.71 1.855-1.811 0-3.35-.616-4.675-1.855-1.324-1.24-1.99-2.991-1.99-5.264 0-2.274.666-4.026 1.99-5.265 1.325-1.24 2.89-1.855 4.675-1.855 1.787 0 3.376.616 4.71 1.855 1.324 1.24 1.99 2.991 1.99 5.264 0 2.274-.666 4.026-1.99 5.265z" fill="url(#prefix__paint1_linear_1106_5528)"/><path d="M108.749 31.558c-3.017 0-5.598 1.025-7.751 3.076-2.154 2.051-3.23 4.743-3.23 8.085 0 3.342 1.076 6.008 3.23 8.06 2.153 2.05 4.734 3.076 7.751 3.076 3.017 0 5.632-1.025 7.786-3.076 2.154-2.052 3.231-4.735 3.231-8.06 0-3.324-1.077-6.034-3.231-8.085-2.154-2.05-4.743-3.076-7.786-3.076zm4.709 16.4c-1.324 1.24-2.897 1.855-4.709 1.855-1.812 0-3.35-.616-4.675-1.855-1.324-1.24-1.991-2.991-1.991-5.264 0-2.274.667-4.026 1.991-5.265 1.325-1.24 2.889-1.855 4.675-1.855 1.787 0 3.376.616 4.709 1.855 1.325 1.24 1.992 2.991 1.992 5.264 0 2.274-.667 4.026-1.992 5.265z" fill="url(#prefix__paint2_linear_1106_5528)"/><path d="M132.047 40.941l-2.991-.572c-1.547-.3-2.325-1.103-2.325-2.41 0-.744.316-1.385.932-1.915.615-.53 1.427-.803 2.41-.803 1.205 0 2.119.316 2.743.932.624.623 1.009 1.316 1.145 2.085l3.744-1.145a7.422 7.422 0 00-.693-1.898c-.324-.606-.777-1.188-1.358-1.769-.582-.58-1.359-1.034-2.325-1.376-.966-.342-2.06-.512-3.291-.512-2.051 0-3.803.64-5.264 1.931-1.462 1.29-2.188 2.88-2.188 4.769 0 1.59.504 2.914 1.504 3.983 1.009 1.068 2.376 1.777 4.102 2.145l2.992.606c.82.163 1.461.47 1.914.924.453.453.675.99.675 1.615 0 .786-.307 1.419-.923 1.897-.615.479-1.461.727-2.547.727-1.427 0-2.538-.385-3.333-1.146-.795-.76-1.239-1.718-1.341-2.863l-3.863 1.026c.076.803.307 1.581.675 2.342.376.752.889 1.47 1.555 2.145.667.675 1.538 1.213 2.624 1.615 1.085.402 2.299.607 3.649.607 2.351 0 4.231-.658 5.624-1.974 1.393-1.316 2.094-2.863 2.094-4.633 0-1.547-.522-2.897-1.573-4.042s-2.513-1.897-4.401-2.265l.034-.026z" fill="url(#prefix__paint3_linear_1106_5528)"/><path d="M139.525 35.959h6.76v17.443h4.197V35.96h6.751V32.01h-17.708v3.949z" fill="url(#prefix__paint4_linear_1106_5528)"/><path d="M160.165 53.402h13.392V49.48h-9.23V44.53h8.358v-3.71h-8.358v-4.888h9.23v-3.922h-13.392v21.391z" fill="url(#prefix__paint5_linear_1106_5528)"/><path d="M188.342 44.65c1.411-.401 2.522-1.145 3.333-2.213.812-1.077 1.223-2.359 1.223-3.846 0-1.889-.624-3.461-1.872-4.709-1.248-1.248-2.897-1.871-4.948-1.871h-8.359v21.391h4.196v-8.239h2.171l4.197 8.24h4.649l-4.59-8.752zm-.589-3.888c-.59.547-1.411.812-2.462.812h-3.376v-5.948h3.376c1.043 0 1.863.273 2.462.812.589.546.888 1.264.888 2.17 0 .906-.299 1.599-.888 2.146v.008z" fill="url(#prefix__paint6_linear_1106_5528)"/><defs><linearGradient id="prefix__paint0_linear_1106_5528" x1="63.718" y1="88.34" x2="63.718" y2="25.934" gradientUnits="userSpaceOnUse"><stop stop-color="#662681"/><stop offset=".72" stop-color="#B91C7B"/></linearGradient><linearGradient id="prefix__paint1_linear_1106_5528" x1="84.418" y1="88.34" x2="84.418" y2="25.934" gradientUnits="userSpaceOnUse"><stop stop-color="#662681"/><stop offset=".72" stop-color="#B91C7B"/></linearGradient><linearGradient id="prefix__paint2_linear_1106_5528" x1="108.766" y1="1.594" x2="108.766" y2="25.934" gradientUnits="userSpaceOnUse"><stop stop-color="#662681"/><stop offset=".72" stop-color="#B91C7B"/></linearGradient><linearGradient id="prefix__paint3_linear_1106_5528" x1="129.902" y1="88.34" x2="129.902" y2="25.934" gradientUnits="userSpaceOnUse"><stop stop-color="#662681"/><stop offset=".72" stop-color="#B91C7B"/></linearGradient><linearGradient id="prefix__paint4_linear_1106_5528" x1="148.379" y1="88.34" x2="148.379" y2="25.934" gradientUnits="userSpaceOnUse"><stop stop-color="#662681"/><stop offset=".72" stop-color="#B91C7B"/></linearGradient><linearGradient id="prefix__paint5_linear_1106_5528" x1="166.865" y1="88.34" x2="166.865" y2="25.934" gradientUnits="userSpaceOnUse"><stop stop-color="#662681"/><stop offset=".72" stop-color="#B91C7B"/></linearGradient><linearGradient id="prefix__paint6_linear_1106_5528" x1="185.325" y1="88.34" x2="185.325" y2="25.934" gradientUnits="userSpaceOnUse"><stop stop-color="#662681"/><stop offset=".72" stop-color="#B91C7B"/></linearGradient></defs></svg>